<svg width="149" height="37" viewBox="0 0 149 37" fill="none" xmlns="http://www.w3.org/2000/svg">
<path d="M1.42 19V5H3.92L8.66 14.32L13.38 5H15.88V19H13.76V8.66L9.48 17H7.84L3.54 8.68V19H1.42ZM22.3247 19V5H24.4447V19H22.3247ZM30.8856 19V5H33.3856L38.1256 14.32L42.8456 5H45.3456V19H43.2256V8.66L38.9456 17H37.3056L33.0056 8.68V19H30.8856ZM51.7903 19V5H53.9103V19H51.7903ZM60.3513 19V5H62.4713L69.4913 15.54V5H71.6113V19H69.4913L62.4713 8.46V19H60.3513ZM84.5128 19.24C83.1261 19.24 81.9128 18.9333 80.8728 18.32C79.8328 17.7067 79.0195 16.86 78.4328 15.78C77.8461 14.6867 77.5528 13.4267 77.5528 12C77.5528 10.5733 77.8461 9.32 78.4328 8.24C79.0195 7.14667 79.8328 6.29333 80.8728 5.68C81.9128 5.06667 83.1261 4.76 84.5128 4.76C85.8995 4.76 87.1128 5.06667 88.1528 5.68C89.1928 6.29333 89.9995 7.14667 90.5728 8.24C91.1595 9.32 91.4528 10.5733 91.4528 12C91.4528 13.4267 91.1595 14.6867 90.5728 15.78C89.9995 16.86 89.1928 17.7067 88.1528 18.32C87.1128 18.9333 85.8995 19.24 84.5128 19.24ZM84.5128 17.34C85.4728 17.34 86.3061 17.1267 87.0128 16.7C87.7328 16.2733 88.2928 15.66 88.6928 14.86C89.0928 14.06 89.2928 13.1067 89.2928 12C89.2928 10.8933 89.0928 9.94 88.6928 9.14C88.2928 8.34 87.7328 7.72667 87.0128 7.3C86.3061 6.87333 85.4728 6.66 84.5128 6.66C83.5528 6.66 82.7128 6.87333 81.9928 7.3C81.2728 7.72667 80.7128 8.34 80.3128 9.14C79.9261 9.94 79.7328 10.8933 79.7328 12C79.7328 13.1067 79.9261 14.06 80.3128 14.86C80.7128 15.66 81.2728 16.2733 81.9928 16.7C82.7128 17.1267 83.5528 17.34 84.5128 17.34Z" fill="#121212"/>
<path d="M0.592 35V29.4H2.4C2.83733 29.4 3.19467 29.472 3.472 29.616C3.74933 29.76 3.95467 29.9573 4.088 30.208C4.22133 30.4587 4.288 30.736 4.288 31.04C4.288 31.392 4.192 31.7093 4 31.992C3.81333 32.2747 3.52 32.4747 3.12 32.592L4.344 35H3.552L2.416 32.688H2.368H1.264V35H0.592ZM1.264 32.16H2.352C2.784 32.16 3.09867 32.056 3.296 31.848C3.49333 31.64 3.592 31.3733 3.592 31.048C3.592 30.7173 3.49333 30.456 3.296 30.264C3.104 30.0667 2.78667 29.968 2.344 29.968H1.264V32.16ZM6.77419 35V29.4H10.2382V29.952H7.44619V31.904H9.99819V32.448H7.44619V34.448H10.2382V35H6.77419ZM14.5138 35.096C14.1031 35.096 13.7458 35.0213 13.4418 34.872C13.1378 34.7227 12.9031 34.5147 12.7378 34.248C12.5725 33.9813 12.4898 33.672 12.4898 33.32H13.1938C13.1938 33.5387 13.2445 33.7413 13.3458 33.928C13.4471 34.1093 13.5938 34.256 13.7858 34.368C13.9831 34.4747 14.2258 34.528 14.5138 34.528C14.8925 34.528 15.1858 34.4373 15.3938 34.256C15.6018 34.0747 15.7058 33.848 15.7058 33.576C15.7058 33.352 15.6578 33.1733 15.5618 33.04C15.4658 32.9013 15.3351 32.7893 15.1698 32.704C15.0098 32.6187 14.8231 32.544 14.6098 32.48C14.4018 32.416 14.1831 32.344 13.9538 32.264C13.5218 32.1147 13.2018 31.9307 12.9938 31.712C12.7858 31.488 12.6818 31.1973 12.6818 30.84C12.6765 30.5413 12.7458 30.2773 12.8898 30.048C13.0338 29.8133 13.2365 29.632 13.4978 29.504C13.7645 29.3707 14.0791 29.304 14.4418 29.304C14.7991 29.304 15.1085 29.3707 15.3698 29.504C15.6365 29.6373 15.8418 29.8213 15.9858 30.056C16.1351 30.2907 16.2125 30.5573 16.2178 30.856H15.5138C15.5138 30.7013 15.4738 30.5493 15.3938 30.4C15.3138 30.2453 15.1911 30.12 15.0258 30.024C14.8658 29.928 14.6631 29.88 14.4178 29.88C14.1138 29.8747 13.8631 29.952 13.6658 30.112C13.4738 30.272 13.3778 30.4933 13.3778 30.776C13.3778 31.016 13.4445 31.2 13.5778 31.328C13.7165 31.456 13.9085 31.5627 14.1538 31.648C14.3991 31.728 14.6818 31.8213 15.0018 31.928C15.2685 32.024 15.5085 32.136 15.7218 32.264C15.9351 32.392 16.1005 32.5573 16.2178 32.76C16.3405 32.9627 16.4018 33.2213 16.4018 33.536C16.4018 33.8027 16.3325 34.056 16.1938 34.296C16.0551 34.5307 15.8445 34.7227 15.5618 34.872C15.2845 35.0213 14.9351 35.096 14.5138 35.096ZM19.974 35V29.952H18.302V29.4H22.318V29.952H20.646V35H19.974ZM23.5938 35L25.6578 29.4H26.3698L28.4258 35H27.7138L27.2018 33.56H24.8178L24.2978 35H23.5938ZM25.0178 33.016H27.0018L26.0098 30.248L25.0178 33.016ZM32.4801 35.096C32.0961 35.096 31.7467 35.0213 31.4321 34.872C31.1227 34.7173 30.8747 34.48 30.6881 34.16C30.5014 33.84 30.4081 33.432 30.4081 32.936V29.4H31.0801V32.944C31.0801 33.488 31.2107 33.8827 31.4721 34.128C31.7334 34.3733 32.0747 34.496 32.4961 34.496C32.9174 34.496 33.2561 34.3733 33.5121 34.128C33.7681 33.8827 33.8961 33.488 33.8961 32.944V29.4H34.5681V32.936C34.5681 33.432 34.4747 33.84 34.2881 34.16C34.1014 34.48 33.8507 34.7173 33.5361 34.872C33.2214 35.0213 32.8694 35.096 32.4801 35.096ZM37.1461 35V29.4H38.9541C39.3914 29.4 39.7487 29.472 40.0261 29.616C40.3034 29.76 40.5087 29.9573 40.6421 30.208C40.7754 30.4587 40.8421 30.736 40.8421 31.04C40.8421 31.392 40.7461 31.7093 40.5541 31.992C40.3674 32.2747 40.0741 32.4747 39.6741 32.592L40.8981 35H40.1061L38.9701 32.688H38.9221H37.8181V35H37.1461ZM37.8181 32.16H38.9061C39.3381 32.16 39.6527 32.056 39.8501 31.848C40.0474 31.64 40.1461 31.3733 40.1461 31.048C40.1461 30.7173 40.0474 30.456 39.8501 30.264C39.6581 30.0667 39.3407 29.968 38.8981 29.968H37.8181V32.16ZM42.9763 35L45.0403 29.4H45.7523L47.8083 35H47.0963L46.5843 33.56H44.2003L43.6803 35H42.9763ZM44.4003 33.016H46.3843L45.3923 30.248L44.4003 33.016ZM50.0808 35V29.4H50.7528L53.7368 33.888V29.4H54.4088V35H53.7368L50.7528 30.512V35H50.0808ZM58.3484 35V29.952H56.6764V29.4H60.6924V29.952H59.0204V35H58.3484ZM62.4345 32.96V32.392H65.6025V32.96H62.4345ZM68.0961 35V29.4H68.7681V31.872H71.6721V29.4H72.3441V35H71.6721V32.424H68.7681V35H68.0961ZM77.5097 35.096C76.9604 35.096 76.4777 34.976 76.0617 34.736C75.6511 34.4907 75.3284 34.1493 75.0937 33.712C74.8644 33.2747 74.7497 32.7707 74.7497 32.2C74.7497 31.6293 74.8644 31.128 75.0937 30.696C75.3284 30.2587 75.6511 29.9173 76.0617 29.672C76.4777 29.4267 76.9604 29.304 77.5097 29.304C78.0644 29.304 78.5471 29.4267 78.9577 29.672C79.3737 29.9173 79.6964 30.2587 79.9257 30.696C80.1551 31.128 80.2697 31.6293 80.2697 32.2C80.2697 32.7707 80.1551 33.2747 79.9257 33.712C79.6964 34.1493 79.3737 34.4907 78.9577 34.736C78.5471 34.976 78.0644 35.096 77.5097 35.096ZM77.5097 34.504C77.9204 34.504 78.2804 34.4133 78.5897 34.232C78.9044 34.0453 79.1471 33.7813 79.3177 33.44C79.4937 33.0933 79.5817 32.68 79.5817 32.2C79.5817 31.72 79.4937 31.3093 79.3177 30.968C79.1471 30.6267 78.9044 30.3653 78.5897 30.184C78.2804 29.9973 77.9204 29.904 77.5097 29.904C77.0991 29.904 76.7364 29.9973 76.4217 30.184C76.1124 30.3653 75.8697 30.6267 75.6937 30.968C75.5231 31.3093 75.4377 31.72 75.4377 32.2C75.4377 32.68 75.5231 33.0933 75.6937 33.44C75.8697 33.7813 76.1124 34.0453 76.4217 34.232C76.7364 34.4133 77.0991 34.504 77.5097 34.504ZM83.7021 35V29.952H82.0301V29.4H86.0461V29.952H84.3741V35H83.7021ZM88.3067 35V29.4H91.7707V29.952H88.9787V31.904H91.5307V32.448H88.9787V34.448H91.7707V35H88.3067ZM94.2623 35V29.4H94.9343V34.464H97.5423V35H94.2623ZM105.919 35.096C105.369 35.096 104.895 34.976 104.495 34.736C104.1 34.4907 103.793 34.152 103.575 33.72C103.356 33.2827 103.247 32.776 103.247 32.2C103.247 31.6293 103.356 31.128 103.575 30.696C103.793 30.2587 104.1 29.9173 104.495 29.672C104.895 29.4267 105.369 29.304 105.919 29.304C106.559 29.304 107.079 29.4587 107.479 29.768C107.884 30.072 108.143 30.4987 108.255 31.048H107.511C107.425 30.7013 107.249 30.424 106.983 30.216C106.721 30.0027 106.367 29.896 105.919 29.896C105.519 29.896 105.169 29.9893 104.871 30.176C104.572 30.3573 104.34 30.6213 104.175 30.968C104.015 31.3093 103.935 31.72 103.935 32.2C103.935 32.68 104.015 33.0933 104.175 33.44C104.34 33.7813 104.572 34.0453 104.871 34.232C105.169 34.4133 105.519 34.504 105.919 34.504C106.367 34.504 106.721 34.4027 106.983 34.2C107.249 33.992 107.425 33.7173 107.511 33.376H108.255C108.143 33.9147 107.884 34.336 107.479 34.64C107.079 34.944 106.559 35.096 105.919 35.096ZM113.204 35.096C112.655 35.096 112.172 34.976 111.756 34.736C111.346 34.4907 111.023 34.1493 110.788 33.712C110.559 33.2747 110.444 32.7707 110.444 32.2C110.444 31.6293 110.559 31.128 110.788 30.696C111.023 30.2587 111.346 29.9173 111.756 29.672C112.172 29.4267 112.655 29.304 113.204 29.304C113.759 29.304 114.242 29.4267 114.652 29.672C115.068 29.9173 115.391 30.2587 115.62 30.696C115.85 31.128 115.964 31.6293 115.964 32.2C115.964 32.7707 115.85 33.2747 115.62 33.712C115.391 34.1493 115.068 34.4907 114.652 34.736C114.242 34.976 113.759 35.096 113.204 35.096ZM113.204 34.504C113.615 34.504 113.975 34.4133 114.284 34.232C114.599 34.0453 114.842 33.7813 115.012 33.44C115.188 33.0933 115.276 32.68 115.276 32.2C115.276 31.72 115.188 31.3093 115.012 30.968C114.842 30.6267 114.599 30.3653 114.284 30.184C113.975 29.9973 113.615 29.904 113.204 29.904C112.794 29.904 112.431 29.9973 112.116 30.184C111.807 30.3653 111.564 30.6267 111.388 30.968C111.218 31.3093 111.132 31.72 111.132 32.2C111.132 32.68 111.218 33.0933 111.388 33.44C111.564 33.7813 111.807 34.0453 112.116 34.232C112.431 34.4133 112.794 34.504 113.204 34.504ZM118.374 35V29.4H119.158L121.174 33.304L123.174 29.4H123.966V35H123.294V30.6L121.422 34.2H120.918L119.046 30.608V35H118.374ZM126.587 35V29.4H128.427C128.865 29.4 129.225 29.472 129.507 29.616C129.79 29.76 129.998 29.9547 130.131 30.2C130.27 30.4453 130.339 30.7227 130.339 31.032C130.339 31.336 130.273 31.6107 130.139 31.856C130.006 32.1013 129.798 32.2987 129.515 32.448C129.233 32.592 128.87 32.664 128.427 32.664H127.259V35H126.587ZM127.259 32.096H128.411C128.859 32.096 129.177 32.0027 129.363 31.816C129.555 31.624 129.651 31.3627 129.651 31.032C129.651 30.696 129.555 30.4347 129.363 30.248C129.177 30.056 128.859 29.96 128.411 29.96H127.259V32.096ZM132.66 35V29.4H133.332V34.464H135.94V35H132.66ZM138.303 35V29.4H141.767V29.952H138.975V31.904H141.527V32.448H138.975V34.448H141.767V35H138.303ZM143.971 35L145.683 32.176L143.971 29.4H144.731L146.107 31.64L147.419 29.4H148.171L146.459 32.208L148.179 35H147.419L146.035 32.752L144.731 35H143.971Z" fill="#121212"/>
</svg>
