<svg width="112" height="38" viewBox="0 0 112 38" fill="none" xmlns="http://www.w3.org/2000/svg">
<path d="M24.494 18.5V8.7H26.244L29.562 15.224L32.866 8.7H34.616V18.5H33.132V11.262L30.136 17.1H28.988L25.978 11.276V18.5H24.494ZM39.1273 18.5V8.7H40.6113V18.5H39.1273ZM45.1199 18.5V8.7H46.8699L50.1879 15.224L53.4919 8.7H55.2419V18.5H53.7579V11.262L50.7619 17.1H49.6139L46.6039 11.276V18.5H45.1199ZM59.7532 18.5V8.7H61.2372V18.5H59.7532ZM65.7459 18.5V8.7H67.2299L72.1439 16.078V8.7H73.6279V18.5H72.1439L67.2299 11.122V18.5H65.7459ZM82.659 18.668C81.6883 18.668 80.839 18.4533 80.111 18.024C79.383 17.5947 78.8136 17.002 78.403 16.246C77.9923 15.4807 77.787 14.5987 77.787 13.6C77.787 12.6013 77.9923 11.724 78.403 10.968C78.8136 10.2027 79.383 9.60533 80.111 9.176C80.839 8.74667 81.6883 8.532 82.659 8.532C83.6296 8.532 84.479 8.74667 85.207 9.176C85.935 9.60533 86.4996 10.2027 86.901 10.968C87.3116 11.724 87.517 12.6013 87.517 13.6C87.517 14.5987 87.3116 15.4807 86.901 16.246C86.4996 17.002 85.935 17.5947 85.207 18.024C84.479 18.4533 83.6296 18.668 82.659 18.668ZM82.659 17.338C83.331 17.338 83.9143 17.1887 84.409 16.89C84.913 16.5913 85.305 16.162 85.585 15.602C85.865 15.042 86.005 14.3747 86.005 13.6C86.005 12.8253 85.865 12.158 85.585 11.598C85.305 11.038 84.913 10.6087 84.409 10.31C83.9143 10.0113 83.331 9.862 82.659 9.862C81.987 9.862 81.399 10.0113 80.895 10.31C80.391 10.6087 79.999 11.038 79.719 11.598C79.4483 12.158 79.313 12.8253 79.313 13.6C79.313 14.3747 79.4483 15.042 79.719 15.602C79.999 16.162 80.391 16.5913 80.895 16.89C81.399 17.1887 81.987 17.338 82.659 17.338Z" fill="#F7F7F7"/>
<path d="M0.444 33.5V29.3H1.8C2.128 29.3 2.396 29.354 2.604 29.462C2.812 29.57 2.966 29.718 3.066 29.906C3.166 30.094 3.216 30.302 3.216 30.53C3.216 30.794 3.144 31.032 3 31.244C2.86 31.456 2.64 31.606 2.34 31.694L3.258 33.5H2.664L1.812 31.766H1.776H0.948V33.5H0.444ZM0.948 31.37H1.764C2.088 31.37 2.324 31.292 2.472 31.136C2.62 30.98 2.694 30.78 2.694 30.536C2.694 30.288 2.62 30.092 2.472 29.948C2.328 29.8 2.09 29.726 1.758 29.726H0.948V31.37ZM5.08064 33.5V29.3H7.67864V29.714H5.58464V31.178H7.49864V31.586H5.58464V33.086H7.67864V33.5H5.08064ZM10.8854 33.572C10.5774 33.572 10.3094 33.516 10.0814 33.404C9.85336 33.292 9.67736 33.136 9.55336 32.936C9.42936 32.736 9.36736 32.504 9.36736 32.24H9.89536C9.89536 32.404 9.93336 32.556 10.0094 32.696C10.0854 32.832 10.1954 32.942 10.3394 33.026C10.4874 33.106 10.6694 33.146 10.8854 33.146C11.1694 33.146 11.3894 33.078 11.5454 32.942C11.7014 32.806 11.7794 32.636 11.7794 32.432C11.7794 32.264 11.7434 32.13 11.6714 32.03C11.5994 31.926 11.5014 31.842 11.3774 31.778C11.2574 31.714 11.1174 31.658 10.9574 31.61C10.8014 31.562 10.6374 31.508 10.4654 31.448C10.1414 31.336 9.90136 31.198 9.74536 31.034C9.58936 30.866 9.51136 30.648 9.51136 30.38C9.50736 30.156 9.55936 29.958 9.66736 29.786C9.77536 29.61 9.92736 29.474 10.1234 29.378C10.3234 29.278 10.5594 29.228 10.8314 29.228C11.0994 29.228 11.3314 29.278 11.5274 29.378C11.7274 29.478 11.8814 29.616 11.9894 29.792C12.1014 29.968 12.1594 30.168 12.1634 30.392H11.6354C11.6354 30.276 11.6054 30.162 11.5454 30.05C11.4854 29.934 11.3934 29.84 11.2694 29.768C11.1494 29.696 10.9974 29.66 10.8134 29.66C10.5854 29.656 10.3974 29.714 10.2494 29.834C10.1054 29.954 10.0334 30.12 10.0334 30.332C10.0334 30.512 10.0834 30.65 10.1834 30.746C10.2874 30.842 10.4314 30.922 10.6154 30.986C10.7994 31.046 11.0114 31.116 11.2514 31.196C11.4514 31.268 11.6314 31.352 11.7914 31.448C11.9514 31.544 12.0754 31.668 12.1634 31.82C12.2554 31.972 12.3014 32.166 12.3014 32.402C12.3014 32.602 12.2494 32.792 12.1454 32.972C12.0414 33.148 11.8834 33.292 11.6714 33.404C11.4634 33.516 11.2014 33.572 10.8854 33.572ZM14.9805 33.5V29.714H13.7265V29.3H16.7385V29.714H15.4845V33.5H14.9805ZM17.6953 33.5L19.2433 29.3H19.7773L21.3193 33.5H20.7853L20.4013 32.42H18.6133L18.2233 33.5H17.6953ZM18.7633 32.012H20.2513L19.5073 29.936L18.7633 32.012ZM24.36 33.572C24.072 33.572 23.81 33.516 23.574 33.404C23.342 33.288 23.156 33.11 23.016 32.87C22.876 32.63 22.806 32.324 22.806 31.952V29.3H23.31V31.958C23.31 32.366 23.408 32.662 23.604 32.846C23.8 33.03 24.056 33.122 24.372 33.122C24.688 33.122 24.942 33.03 25.134 32.846C25.326 32.662 25.422 32.366 25.422 31.958V29.3H25.926V31.952C25.926 32.324 25.856 32.63 25.716 32.87C25.576 33.11 25.388 33.288 25.152 33.404C24.916 33.516 24.652 33.572 24.36 33.572ZM27.8595 33.5V29.3H29.2155C29.5435 29.3 29.8115 29.354 30.0195 29.462C30.2275 29.57 30.3815 29.718 30.4815 29.906C30.5815 30.094 30.6315 30.302 30.6315 30.53C30.6315 30.794 30.5595 31.032 30.4155 31.244C30.2755 31.456 30.0555 31.606 29.7555 31.694L30.6735 33.5H30.0795L29.2275 31.766H29.1915H28.3635V33.5H27.8595ZM28.3635 31.37H29.1795C29.5035 31.37 29.7395 31.292 29.8875 31.136C30.0355 30.98 30.1095 30.78 30.1095 30.536C30.1095 30.288 30.0355 30.092 29.8875 29.948C29.7435 29.8 29.5055 29.726 29.1735 29.726H28.3635V31.37ZM32.2322 33.5L33.7802 29.3H34.3142L35.8562 33.5H35.3222L34.9382 32.42H33.1502L32.7602 33.5H32.2322ZM33.3002 32.012H34.7882L34.0442 29.936L33.3002 32.012ZM37.5606 33.5V29.3H38.0646L40.3026 32.666V29.3H40.8066V33.5H40.3026L38.0646 30.134V33.5H37.5606ZM43.7613 33.5V29.714H42.5073V29.3H45.5193V29.714H44.2653V33.5H43.7613ZM46.8259 31.97V31.544H49.2019V31.97H46.8259ZM51.072 33.5V29.3H51.576V31.154H53.754V29.3H54.258V33.5H53.754V31.568H51.576V33.5H51.072ZM58.1323 33.572C57.7203 33.572 57.3583 33.482 57.0463 33.302C56.7383 33.118 56.4963 32.862 56.3203 32.534C56.1483 32.206 56.0623 31.828 56.0623 31.4C56.0623 30.972 56.1483 30.596 56.3203 30.272C56.4963 29.944 56.7383 29.688 57.0463 29.504C57.3583 29.32 57.7203 29.228 58.1323 29.228C58.5483 29.228 58.9103 29.32 59.2183 29.504C59.5303 29.688 59.7723 29.944 59.9443 30.272C60.1163 30.596 60.2023 30.972 60.2023 31.4C60.2023 31.828 60.1163 32.206 59.9443 32.534C59.7723 32.862 59.5303 33.118 59.2183 33.302C58.9103 33.482 58.5483 33.572 58.1323 33.572ZM58.1323 33.128C58.4403 33.128 58.7103 33.06 58.9423 32.924C59.1783 32.784 59.3603 32.586 59.4883 32.33C59.6203 32.07 59.6863 31.76 59.6863 31.4C59.6863 31.04 59.6203 30.732 59.4883 30.476C59.3603 30.22 59.1783 30.024 58.9423 29.888C58.7103 29.748 58.4403 29.678 58.1323 29.678C57.8243 29.678 57.5523 29.748 57.3163 29.888C57.0843 30.024 56.9023 30.22 56.7703 30.476C56.6423 30.732 56.5783 31.04 56.5783 31.4C56.5783 31.76 56.6423 32.07 56.7703 32.33C56.9023 32.586 57.0843 32.784 57.3163 32.924C57.5523 33.06 57.8243 33.128 58.1323 33.128ZM62.7766 33.5V29.714H61.5226V29.3H64.5346V29.714H63.2806V33.5H62.7766ZM66.23 33.5V29.3H68.828V29.714H66.734V31.178H68.648V31.586H66.734V33.086H68.828V33.5H66.23ZM70.6967 33.5V29.3H71.2007V33.098H73.1567V33.5H70.6967ZM79.439 33.572C79.027 33.572 78.671 33.482 78.371 33.302C78.075 33.118 77.845 32.864 77.681 32.54C77.517 32.212 77.435 31.832 77.435 31.4C77.435 30.972 77.517 30.596 77.681 30.272C77.845 29.944 78.075 29.688 78.371 29.504C78.671 29.32 79.027 29.228 79.439 29.228C79.919 29.228 80.309 29.344 80.609 29.576C80.913 29.804 81.107 30.124 81.191 30.536H80.633C80.569 30.276 80.437 30.068 80.237 29.912C80.041 29.752 79.775 29.672 79.439 29.672C79.139 29.672 78.877 29.742 78.653 29.882C78.429 30.018 78.255 30.216 78.131 30.476C78.011 30.732 77.951 31.04 77.951 31.4C77.951 31.76 78.011 32.07 78.131 32.33C78.255 32.586 78.429 32.784 78.653 32.924C78.877 33.06 79.139 33.128 79.439 33.128C79.775 33.128 80.041 33.052 80.237 32.9C80.437 32.744 80.569 32.538 80.633 32.282H81.191C81.107 32.686 80.913 33.002 80.609 33.23C80.309 33.458 79.919 33.572 79.439 33.572ZM84.9033 33.572C84.4913 33.572 84.1293 33.482 83.8173 33.302C83.5093 33.118 83.2673 32.862 83.0913 32.534C82.9193 32.206 82.8333 31.828 82.8333 31.4C82.8333 30.972 82.9193 30.596 83.0913 30.272C83.2673 29.944 83.5093 29.688 83.8173 29.504C84.1293 29.32 84.4913 29.228 84.9033 29.228C85.3193 29.228 85.6813 29.32 85.9893 29.504C86.3013 29.688 86.5433 29.944 86.7153 30.272C86.8873 30.596 86.9733 30.972 86.9733 31.4C86.9733 31.828 86.8873 32.206 86.7153 32.534C86.5433 32.862 86.3013 33.118 85.9893 33.302C85.6813 33.482 85.3193 33.572 84.9033 33.572ZM84.9033 33.128C85.2113 33.128 85.4813 33.06 85.7133 32.924C85.9493 32.784 86.1313 32.586 86.2593 32.33C86.3913 32.07 86.4573 31.76 86.4573 31.4C86.4573 31.04 86.3913 30.732 86.2593 30.476C86.1313 30.22 85.9493 30.024 85.7133 29.888C85.4813 29.748 85.2113 29.678 84.9033 29.678C84.5953 29.678 84.3233 29.748 84.0873 29.888C83.8553 30.024 83.6733 30.22 83.5413 30.476C83.4133 30.732 83.3493 31.04 83.3493 31.4C83.3493 31.76 83.4133 32.07 83.5413 32.33C83.6733 32.586 83.8553 32.784 84.0873 32.924C84.3233 33.06 84.5953 33.128 84.9033 33.128ZM88.7804 33.5V29.3H89.3684L90.8804 32.228L92.3804 29.3H92.9744V33.5H92.4704V30.2L91.0664 32.9H90.6884L89.2844 30.206V33.5H88.7804ZM94.9405 33.5V29.3H96.3205C96.6485 29.3 96.9185 29.354 97.1305 29.462C97.3425 29.57 97.4985 29.716 97.5985 29.9C97.7025 30.084 97.7545 30.292 97.7545 30.524C97.7545 30.752 97.7045 30.958 97.6045 31.142C97.5045 31.326 97.3485 31.474 97.1365 31.586C96.9245 31.694 96.6525 31.748 96.3205 31.748H95.4445V33.5H94.9405ZM95.4445 31.322H96.3085C96.6445 31.322 96.8825 31.252 97.0225 31.112C97.1665 30.968 97.2385 30.772 97.2385 30.524C97.2385 30.272 97.1665 30.076 97.0225 29.936C96.8825 29.792 96.6445 29.72 96.3085 29.72H95.4445V31.322ZM99.4951 33.5V29.3H99.9991V33.098H101.955V33.5H99.4951ZM103.727 33.5V29.3H106.325V29.714H104.231V31.178H106.145V31.586H104.231V33.086H106.325V33.5H103.727ZM107.978 33.5L109.262 31.382L107.978 29.3H108.548L109.58 30.98L110.564 29.3H111.128L109.844 31.406L111.134 33.5H110.564L109.526 31.814L108.548 33.5H107.978Z" fill="#D8D7D7"/>
</svg>
